<svg height="308" id="164436699152732273" width="560" version="1.1" 
		xmlns:dc="http://purl.org/dc/elements/1.1/"
		xmlns:cc="http://creativecommons.org/ns#"
		xmlns:rdf="http://www.w3.org/1999/02/22-rdf-syntax-ns#"
		xmlns:svg="http://www.w3.org/2000/svg"
		xmlns="http://www.w3.org/2000/svg"
		xmlns:sodipodi="http://sodipodi.sourceforge.net/DTD/sodipodi-0.dtd"
		xmlns:inkscape="http://www.inkscape.org/namespaces/inkscape"
		viewBox="0 0 560 308" style="width: 560px; height: 308px;transition: 0.3s;border-radius: 5px; position: absolute; top: 50%;font-size:48px; left: 50%; transform: translate(-50%, -50%) scale(0.5); z-index: 0; cursor: pointer;"><defs><style type="text/css">@import url("https://fonts.googleapis.com/css2?family=Heebo:wght@200 ");</style></defs><defs><style type="text/css">@import url("https://fonts.googleapis.com/css2?family=Cinzel+Decorative ");</style></defs><style>.mytextnew164436699152732273{text-align:center;font-family: 'Heebo', sans-serif;}.mytextnew2164436699152732273{text-align:center;font-family: 'Cinzel Decorative', cursive;}</style><g id="164436699152732273" featurekey="nameFeature-0" fill="#000"  transform="translate(104.875,84) scale(1.0606060606061)">
  <defs
     id="defs412" />
  <sodipodi:namedview
     id="base"
     pagecolor="#ffffff"
     bordercolor="#666666"
     borderopacity="1.0"
     inkscape:pageopacity="0.0"
     inkscape:pageshadow="2"
     inkscape:zoom="0.94"
     inkscape:cx="400"
     inkscape:cy="231.39797"
     inkscape:document-units="px"
     inkscape:current-layer="layer1"
     inkscape:document-rotation="0"
     showgrid="false"
     units="px"
     inkscape:window-width="1624"
     inkscape:window-height="1228"
     inkscape:window-x="354"
     inkscape:window-y="161"
     inkscape:window-maximized="0" />
  <metadata
     id="metadata415">
    <rdf:RDF>
      <cc:Work
         rdf:about="">
        <dc:format>image/svg+xml</dc:format>
        <dc:type
           rdf:resource="http://purl.org/dc/dcmitype/StillImage" />
        <dc:title></dc:title>
      </cc:Work>
    </rdf:RDF>
  </metadata>
  <g
     inkscape:label="Layer 1"
     inkscape:groupmode="layer"
     id="layer1">
    <g
       id="g168"
       transform="matrix(0.27671947,0,0,0.27671947,-253.78444,0.49688634)">
      <path
         
         d="m 1230.9,31.6 c 10.5,3.8 20.7,8.3 30.5,13.6 9.8,5.4 19.1,11.4 28,18.1 8.9,6.7 17.2,14.2 25,22.2 1.9,2 3.9,4 5.7,6.1 l 5.5,6.3 c 3.5,4.4 7,8.7 10.1,13.3 6.4,9.1 12.3,18.7 17.2,28.7 1.3,2.5 2.4,5 3.6,7.6 1.1,2.5 2.3,5.1 3.3,7.7 1,2.6 2.1,5.2 3,7.8 l 2.7,7.9 c 3.3,10.7 5.9,21.6 7.6,32.6 1.6,11.1 2.4,22.2 2.5,33.4 h -7.1 c 0,-15.3 -1.7,-30.7 -5,-45.6 -1.3,-2 -2.3,-4.4 -3.3,-6.8 -1,-2.3 -1.9,-4.6 -2.5,-6.2 0.3,1.7 0.6,4 0.8,6.5 0,2.5 -0.2,5.2 -0.7,7.5 3.2,14.7 4.8,29.6 4.7,44.6 h -6.8 c 0,-14.5 -1.5,-29 -4.7,-43.2 -0.6,-1 -1.2,-2.2 -1.7,-3.3 -0.5,-1.2 -1,-2.4 -1.5,-3.6 -1,-2.5 -1.8,-5 -2.6,-7.6 -1.7,-5 -2.9,-9.9 -4.4,-13.1 -9.1,-21.8 -22.1,-42.1 -38.3,-59.3 -16.2,-17.3 -35.5,-31.6 -56.8,-42.1 -21.2,-10.5 -44.4,-17.1 -68.1,-19.3 -23.7,-2.1 -47.7,0 -70.7,6.4 -22.9,6.4 -44.7,17.1 -63.8,31.4 -19.1,14.3 -35.6,32.2 -48.3,52.5 -12.7,20.3 -21.6,43 -26,66.6 -4.4,23.6 -4.6,48.1 -0.1,71.7 4.4,23.7 13.3,46.5 26.1,66.9 12.8,20.5 29.4,38.5 48.8,53 19.4,14.4 41.4,25.3 64.7,31.7 23.3,6.4 47.8,8.3 71.8,5.9 24,-2.3 47.5,-9.4 68.9,-20.4 21.4,-11 40.8,-25.9 56.8,-43.7 16,-17.8 28.7,-38.5 37.2,-60.8 8.5,-22.3 12.8,-46 12.9,-69.6 3.2,0.2 7.7,-1.2 7.9,2.6 l -0.2,4.6 c -0.1,1.5 -0.1,3.1 -0.3,4.6 l -0.9,9.1 -1.3,9.1 c -0.5,3 -1.2,6 -1.7,9 -2.5,12 -6.1,23.7 -10.7,35.1 -9.2,22.7 -22.3,43.7 -38.8,61.8 -16.5,18.1 -36.1,33.3 -57.8,44.6 -10.9,5.7 -22.2,10.4 -33.9,14 -11.7,3.7 -23.8,6.2 -36,7.7 -12.2,1.5 -24.5,1.9 -36.8,1.2 l -4.6,-0.3 c -1.5,-0.1 -3.1,-0.2 -4.6,-0.4 l -9.2,-1.1 -9.1,-1.6 c -3,-0.6 -6,-1.3 -9,-2 -24,-5.8 -47,-16 -67.5,-29.9 -20.5,-13.9 -38.6,-31.6 -52.9,-52.1 -14.3,-20.4 -25,-43.5 -31.1,-67.8 5.6,24.6 15.9,48.3 30.1,69.3 7.1,10.5 15.1,20.4 24,29.4 8.9,9.1 18.6,17.3 29,24.6 20.8,14.6 44.3,25.3 69,31.5 12.3,3.1 25,5 37.6,5.8 12.7,0.7 25.4,0.3 38,-1.2 25.2,-3.1 49.9,-10.7 72.3,-22.7 22.4,-11.9 42.5,-27.9 59.1,-47 16.6,-19 29.8,-40.9 38.5,-64.5 8.7,-23.5 13,-48.6 12.9,-73.4 h 4 c 2.3,-0.4 3.5,0.6 3.9,2.7 l -0.3,8.4 -0.7,8.4 c -0.2,2.8 -0.6,5.6 -1,8.4 l -0.6,4.2 c -0.2,1.4 -0.5,2.8 -0.7,4.2 -1.8,11.1 -4.8,22.1 -8.4,32.8 -1.7,5.4 -3.9,10.6 -6,15.8 l -3.5,7.7 c -0.6,1.3 -1.2,2.5 -1.9,3.8 l -1.9,3.8 c -5.3,10 -11.2,19.6 -18,28.7 -26.9,36.4 -65.5,64.1 -108.9,77.9 -43.4,13.9 -91.1,13.7 -134.5,-0.7 l -4.1,-1.4 -2,-0.7 -2,-0.8 -8,-3.1 -7.8,-3.5 c -0.6,-0.3 -1.3,-0.6 -1.9,-0.9 l -1.9,-1 -3.8,-1.9 c -10.1,-5.3 -19.9,-11.2 -29.1,-18 -9.2,-6.8 -17.9,-14.3 -25.9,-22.4 l -5.9,-6.2 -5.6,-6.5 c -1,-1.1 -1.8,-2.2 -2.7,-3.3 L 986,370 c -0.9,-1.1 -1.8,-2.2 -2.6,-3.4 l -2.5,-3.5 c -13.5,-18.5 -23.7,-39.4 -30.7,-61.2 -3.4,-11 -6,-22.2 -7.7,-33.5 l -1.1,-8.5 c -0.3,-2.8 -0.5,-5.7 -0.7,-8.6 -0.1,-1.4 -0.3,-2.9 -0.3,-4.3 l -0.1,-4.3 c -0.1,-2.9 -0.2,-5.7 -0.1,-8.6 l 0.2,-8.6 0.6,-8.6 c 0.2,-2.9 0.6,-5.7 0.9,-8.5 l 0.5,-4.3 c 0.2,-1.4 0.5,-2.8 0.7,-4.2 l 0.8,-4.2 c 0.3,-1.4 0.5,-2.8 0.8,-4.2 l 1.9,-8.4 c 0.7,-2.8 1.5,-5.5 2.3,-8.3 0.7,-2.8 1.7,-5.5 2.6,-8.2 7.2,-21.8 18.2,-42.2 31.9,-60.6 6.9,-9.1 14.5,-17.7 22.7,-25.7 2.1,-2 4.1,-4 6.2,-5.9 l 6.5,-5.6 c 4.5,-3.6 8.9,-7.1 13.6,-10.4 l 3.5,-2.5 c 1.2,-0.8 2.4,-1.5 3.6,-2.3 l 3.6,-2.3 1.8,-1.1 1.9,-1.1 7.4,-4.2 7.6,-3.9 c 10.3,-5 20.9,-9.2 31.8,-12.6 43.6,-13.3 91.1,-12.4 133.7,2.5 1.2,0.3 2.3,0.4 3.6,0.7 z m 121,135.7 c 0.4,1.4 1.2,3.1 2,4.9 0.4,0.9 0.9,1.9 1.3,2.9 0.4,1 0.8,2.1 1.2,3.2 -0.6,-2.7 -1.2,-5.4 -1.8,-7.8 -0.3,-1.2 -0.6,-2.4 -0.9,-3.4 -0.1,-0.5 -0.3,-1 -0.4,-1.5 -0.2,-0.5 -0.3,-0.9 -0.5,-1.3 -5.3,-13.3 -12,-26.1 -20,-38.1 8,12.9 14.5,26.7 19.1,41.1 z"
         id="path160" />
      <path
         
         d="M 1275.6,41.7 C 1253.9,28.4 1229.9,18.9 1205,13.5 1180.1,8.3 1154.4,7 1129.1,10.2 c -12.6,1.6 -25.2,4.1 -37.4,7.8 -12.2,3.7 -24.1,8.4 -35.5,14 l -4.3,2.2 c -1.4,0.7 -2.8,1.4 -4.2,2.2 l -8.3,4.7 -8,5.1 c -2.7,1.7 -5.2,3.6 -7.8,5.5 -10.3,7.5 -19.9,15.8 -28.9,24.9 -8.9,9 -17.1,18.9 -24.3,29.3 -7.3,10.4 -13.7,21.4 -19.2,32.9 -5.5,11.4 -9.9,23.4 -13.3,35.6 l -1.3,4.6 c -0.4,1.5 -0.7,3.1 -1.1,4.6 l -1.1,4.6 -0.5,2.3 c -0.2,0.8 -0.3,1.6 -0.4,2.3 l -1.7,9.4 -1.2,9.4 c -1.3,12.6 -1.7,25.2 -1,37.8 0.7,12.6 2.5,25.1 5.2,37.4 l 1.1,4.6 c 0.3,1.5 0.7,3.1 1.2,4.6 l 2.6,9.1 3,8.9 c 0.5,1.5 1.1,3 1.7,4.4 l 1.7,4.4 c 4.8,11.7 10.5,22.9 17,33.6 6.6,10.7 14.1,20.8 22.3,30.2 8.2,9.4 17.2,18.2 26.8,26.2 9.6,7.9 19.9,15.1 30.7,21.4 l 4.1,2.3 c 1.3,0.8 2.7,1.5 4.1,2.2 l 8.3,4.2 8.5,3.8 c 1.4,0.7 2.9,1.2 4.3,1.8 l 4.3,1.7 c 11.6,4.4 23.6,7.9 35.7,10.4 12.2,2.4 24.5,3.8 36.8,4.3 l 9.2,0.2 9.2,-0.3 2.3,-0.1 c 0.8,0 1.5,-0.1 2.3,-0.2 l 4.6,-0.4 4.6,-0.4 c 1.5,-0.2 3.1,-0.4 4.6,-0.6 l 4.6,-0.6 2.3,-0.3 c 0.8,-0.1 1.5,-0.3 2.3,-0.4 l 9.1,-1.7 9,-2.1 2.2,-0.5 2.2,-0.6 4.4,-1.3 c 11.8,-3.5 23.3,-7.8 34.3,-13.1 11,-5.3 21.6,-11.5 31.6,-18.5 10,-6.9 19.4,-14.7 28.2,-23.1 8.7,-8.4 16.8,-17.5 24.1,-27.2 7.2,-9.7 13.7,-19.9 19.4,-30.6 5.7,-10.6 10.4,-21.8 14.3,-33.2 2,-5.7 3.6,-11.5 5.2,-17.3 l 2,-8.8 c 0.4,-1.5 0.6,-2.9 0.9,-4.4 l 0.8,-4.4 c 0.3,-1.5 0.5,-2.9 0.8,-4.4 l 0.6,-4.5 0.6,-4.4 c 0.1,-0.7 0.2,-1.5 0.3,-2.2 l 0.2,-2.2 0.7,-8.9 0.2,-8.9 c 0,-3 -2.5,-2.2 -2.1,2.8 0,5.9 -0.6,11.8 -1.1,17.7 l -1.1,8.8 -0.3,2.2 -0.4,2.2 -0.8,4.4 c -2.2,11.6 -5.1,23.1 -9.1,34.3 -4,11.1 -8.8,22 -14.4,32.4 -5.7,10.4 -12.2,20.3 -19.3,29.7 -7.1,9.4 -15.1,18.2 -23.7,26.3 l -3.2,3.1 c -1.1,1 -2.2,1.9 -3.3,2.9 l -3.4,2.9 c -1.1,1 -2.2,1.9 -3.4,2.8 l -7,5.5 -7.2,5.1 c -9.8,6.7 -20,12.6 -30.7,17.8 -10.7,5.1 -21.8,9.3 -33.1,12.7 -11.3,3.4 -23,5.8 -34.7,7.3 l -4.4,0.6 c -0.7,0.1 -1.5,0.2 -2.2,0.3 l -2.2,0.2 -8.8,0.7 c -5.9,0.2 -11.8,0.4 -17.7,0.2 -5.9,0 -11.8,-0.6 -17.7,-1.1 l -8.8,-1.1 c -0.7,-0.1 -1.5,-0.2 -2.2,-0.3 l -2.2,-0.4 -4.4,-0.8 -4.4,-0.8 -4.3,-1 -4.3,-1 -2.2,-0.5 -2.1,-0.6 -8.5,-2.4 -8.4,-2.8 c -44.7,-15.7 -83.9,-46.1 -110.7,-85 -6.7,-9.8 -12.6,-20 -17.7,-30.7 -5.1,-10.7 -9.3,-21.8 -12.7,-33.1 -3.4,-11.3 -5.8,-23 -7.3,-34.7 -0.9,-5.9 -1.2,-11.8 -1.7,-17.6 -0.1,-5.9 -0.4,-11.8 -0.2,-17.7 0.1,-2.9 0.1,-5.9 0.4,-8.8 0.2,-2.9 0.4,-5.9 0.7,-8.8 l 1.1,-8.8 c 0.2,-1.5 0.4,-2.9 0.7,-4.4 l 0.8,-4.4 0.8,-4.4 1,-4.3 1,-4.3 0.5,-2.2 0.6,-2.1 2.4,-8.5 2.8,-8.4 c 4,-11.1 8.8,-22 14.4,-32.4 5.7,-10.4 12.2,-20.3 19.4,-29.7 1.8,-2.3 3.6,-4.7 5.5,-6.9 l 5.8,-6.7 c 4,-4.3 8.1,-8.6 12.4,-12.6 l 3.2,-3.1 3.3,-2.9 3.4,-2.9 1.7,-1.4 1.7,-1.4 7,-5.5 7.2,-5.1 c 9.8,-6.7 20,-12.6 30.7,-17.7 10.7,-5.1 21.8,-9.3 33.1,-12.6 11.3,-3.4 23,-5.8 34.7,-7.3 5.9,-0.9 11.8,-1.2 17.6,-1.6 5.9,-0.1 11.8,-0.4 17.7,-0.1 l 4.4,0.1 c 1.5,0 2.9,0.2 4.4,0.3 2.9,0.2 5.9,0.4 8.8,0.7 l 8.8,1.1 c 1.5,0.2 2.9,0.4 4.4,0.7 l 4.4,0.8 c 1.5,0.3 2.9,0.5 4.4,0.8 l 4.3,1 4.3,1 c 0.7,0.2 1.4,0.3 2.2,0.5 l 2.1,0.6 8.5,2.4 8.4,2.8 c 1.4,0.6 3.2,1.3 5.5,2 l 6.6,2.6 6.5,2.9 3.2,1.5 c 1.1,0.5 2.1,1.1 3.2,1.6 l 6.3,3.2 c 8.3,4.6 16.4,9.5 24.1,15.1 15.5,10.9 29.4,24 41.6,38.4 1.6,1.8 3,3.7 4.5,5.5 1.4,1.9 3,3.7 4.3,5.6 2.7,3.9 5.6,7.7 8.1,11.7 1.3,2 2.6,4 3.8,6 l 3.5,6.2 c 0.6,1 1.2,2 1.7,3.1 l 1.6,3.2 3.2,6.3 2.9,6.5 1.5,3.2 1.3,3.3 2.6,6.6 c 0.8,2.2 1.5,4.5 2.3,6.7 1.6,4.5 2.8,9.1 4.1,13.6 0.7,2.3 1.1,4.6 1.7,6.9 l 0.8,3.5 0.4,1.7 0.3,1.7 c 0,0 0,0 0,-0.1 2.9,14.5 4.3,29.2 4.3,43.9 h 2.1 c -0.1,-19.6 -2.6,-39.3 -7.6,-58.2 -5.1,-18.9 -12.4,-37.3 -22.2,-54.2 -18.8,-33.9 -47.1,-62.5 -80.3,-82.6 z"
         id="path162" />
      <path
         
         d="m 1217.3,61.4 c -36.2,-12.7 -76.9,-13.5 -114.1,-2.2 -9.3,2.9 -18.3,6.5 -27.1,10.7 l -6.5,3.3 -6.3,3.6 -1.6,0.9 -1.5,1 -3.1,2 c -1,0.7 -2.1,1.3 -3.1,2 l -3,2.1 c -4,2.7 -7.8,5.8 -11.6,8.8 l -5.5,4.8 c -1.8,1.6 -3.6,3.3 -5.3,5 -7,6.8 -13.5,14.1 -19.4,21.9 -11.6,15.7 -21,33.1 -27.2,51.7 -0.8,2.3 -1.6,4.6 -2.2,7 -0.6,2.4 -1.4,4.7 -2,7.1 l -1.6,7.1 c -0.3,1.2 -0.5,2.4 -0.7,3.6 l -0.6,3.6 c -0.2,1.2 -0.5,2.4 -0.6,3.6 l -0.5,3.6 c -0.3,2.4 -0.7,4.8 -0.8,7.3 l -0.5,7.3 -0.2,7.3 c -0.1,2.4 0,4.9 0.1,7.3 l 0.1,3.7 c 0,1.2 0.2,2.4 0.2,3.7 0.2,2.4 0.3,4.9 0.6,7.3 l 0.9,7.3 c 1.5,9.7 3.7,19.2 6.6,28.6 6,18.6 14.7,36.4 26.2,52.2 l 2.1,3 c 0.7,1 1.5,1.9 2.3,2.9 l 2.3,2.9 c 0.8,1 1.5,1.9 2.3,2.8 l 4.8,5.5 5.1,5.3 c 6.9,6.9 14.3,13.3 22.1,19.1 7.9,5.8 16.2,10.9 24.9,15.4 l 3.3,1.7 1.6,0.8 c 0.5,0.3 1.1,0.5 1.7,0.8 l 6.7,3 6.8,2.7 1.7,0.7 1.7,0.6 3.5,1.2 c 36.9,12.2 77.8,12.4 114.7,0.5 36.9,-11.8 69.9,-35.4 92.8,-66.5 5.8,-7.7 10.8,-16 15.4,-24.5 l 1.7,-3.2 c 0.6,-1.1 1.1,-2.1 1.6,-3.2 l 3,-6.6 c 1.8,-4.5 3.7,-8.9 5.1,-13.5 3.1,-9.1 5.6,-18.4 7.2,-27.9 0.2,-1.2 0.5,-2.4 0.6,-3.6 l 0.5,-3.6 c 0.3,-2.4 0.7,-4.8 0.8,-7.2 l 0.6,-7.2 0.2,-7.2 c -0.4,-1.8 -1.6,-2.7 -3.9,-2.3 h -4 c 0,9.3 -0.7,18.5 -2,27.7 -1.4,9.2 -3.6,18.2 -6.3,27.1 -2.7,8.9 -6.4,17.4 -10.5,25.8 -2,4.2 -4.4,8.2 -6.7,12.2 l -3.8,5.9 c -1.3,2 -2.7,3.8 -4,5.7 -21.7,30.4 -53.5,53.5 -89,65 -8.9,2.8 -18,5.1 -27.2,6.5 -9.3,1.4 -18.6,2.1 -28,2.1 -9.4,-0.1 -18.7,-0.9 -28,-2.3 -9.2,-1.5 -18.3,-3.8 -27.2,-6.6 -35.5,-11.7 -67.2,-34.9 -88.8,-65.4 l -2,-2.9 c -0.7,-0.9 -1.4,-1.9 -2,-2.9 l -3.8,-5.9 -3.5,-6.1 -0.9,-1.5 -0.8,-1.6 -1.6,-3.1 -1.6,-3.1 -1.4,-3.2 c -0.9,-2.1 -2,-4.2 -2.8,-6.4 -0.8,-2.2 -1.7,-4.3 -2.5,-6.5 l -2.2,-6.6 c -2.8,-8.9 -4.9,-18 -6.3,-27.2 -1.3,-9.2 -1.9,-18.5 -1.9,-27.8 0.1,-9.3 1,-18.6 2.4,-27.8 l 1.2,-6.9 1.6,-6.8 0.4,-1.7 c 0.1,-0.6 0.3,-1.1 0.5,-1.7 l 1,-3.3 0.9,-3.3 c 0.4,-1.1 0.7,-2.2 1.1,-3.3 l 1.1,-3.3 0.6,-1.6 c 0.2,-0.5 0.4,-1.1 0.6,-1.6 l 2.6,-6.5 2.9,-6.3 0.7,-1.6 0.8,-1.5 1.6,-3.1 1.6,-3.1 1.7,-3 1.7,-3 c 0.3,-0.5 0.6,-1 0.9,-1.5 l 0.9,-1.5 3.8,-5.8 4,-5.7 c 21.9,-29.9 53.4,-52.6 88.4,-64 35,-11.5 73.8,-11.7 108.8,-0.8 l -0.2,0.5 c 35.4,11.3 67.3,34 89.3,64.3 5.6,7.5 10.4,15.5 14.7,23.8 4.3,8.3 8,16.9 10.8,25.8 2.9,8.9 5.1,18 6.6,27.2 1.4,9.3 2.1,18.6 2.2,28 h 7.1 c -0.1,-9.5 -0.8,-19.1 -2.1,-28.5 -1.5,-9.4 -3.7,-18.7 -6.5,-27.8 l -2.3,-6.8 c -0.8,-2.2 -1.7,-4.4 -2.6,-6.7 -0.8,-2.2 -1.8,-4.4 -2.8,-6.6 -1,-2.2 -1.9,-4.4 -3,-6.5 -4.2,-8.6 -9.1,-16.7 -14.6,-24.5 -2.7,-3.9 -5.7,-7.6 -8.6,-11.4 l -4.7,-5.4 c -1.6,-1.8 -3.3,-3.5 -4.9,-5.2 -6.6,-6.8 -13.7,-13.2 -21.3,-18.9 -7.6,-5.7 -15.6,-10.9 -23.9,-15.5 -8.4,-4.5 -17.1,-8.3 -26,-11.6 -1.3,0.2 -2.3,0 -3.1,0 z"
         id="path164" />
      <path
         
         d="m 1319.2,166.3 c -1,-2.1 -1.9,-4.3 -3,-6.4 l -3.2,-6.3 c -2.3,-4.1 -4.6,-8.2 -7.3,-12.2 -5.2,-7.9 -10.9,-15.4 -17.2,-22.5 -7.1,-8 -14.9,-15.3 -23.1,-21.7 -8.2,-6.4 -16.9,-11.7 -25.5,-16 l -5.3,-2.7 -5.4,-2.4 -2.7,-1.2 -2.7,-1.1 c -1.8,-0.7 -3.7,-1.5 -5.5,-2.1 -3.7,-1.2 -7.4,-2.6 -11.2,-3.6 -1.9,-0.5 -3.8,-1.1 -5.7,-1.6 l -5.7,-1.3 c -1.9,-0.5 -3.9,-0.8 -5.8,-1.1 l -2.9,-0.5 c -1,-0.2 -1.9,-0.4 -2.9,-0.5 -3.9,-0.5 -7.8,-1.1 -11.7,-1.3 -7.9,-0.7 -15.8,-0.6 -23.6,-0.3 -31.5,1.7 -62.3,12 -88.5,29.7 -26.1,17.6 -47.4,42.4 -60.8,70.9 -13.5,28.4 -18.9,60.6 -15.9,92 2.2,22.2 8.6,43.9 18.8,63.6 10.2,19.8 24.3,37.6 41.2,52.1 16.9,14.6 36.5,25.9 57.5,33.2 21,7.3 43.5,10.4 65.8,9.4 22.3,-1.1 44.3,-6.4 64.5,-15.7 20.2,-9.3 38.7,-22.5 54.1,-38.6 15.6,-16.4 28.1,-35.8 36.4,-56.9 3.3,-10.1 7.3,-21.4 9.6,-32.8 2.3,-11.4 2.9,-22.7 0.6,-31.4 0,9.1 -0.7,18.2 -2.1,27.2 -1.4,9 -3.6,17.8 -6.3,26.5 -2.7,8.7 -6.3,17.1 -10.4,25.2 -4.1,8.1 -8.8,16 -14.3,23.3 -21.3,29.7 -52.5,52.1 -87.3,63.3 -34.7,11.3 -73.3,11 -107.9,-0.5 l -3.2,-1.1 c -1.1,-0.4 -2.2,-0.7 -3.2,-1.2 l -6.4,-2.5 c -4.2,-1.9 -8.4,-3.7 -12.4,-5.9 l -3.1,-1.6 -3,-1.7 -3,-1.7 c -0.5,-0.3 -1,-0.6 -1.5,-0.9 l -1.4,-0.9 -5.8,-3.7 -5.6,-4 c -7.3,-5.5 -14.2,-11.5 -20.7,-18 l -4.7,-5 -4.5,-5.2 -1.1,-1.3 -1.1,-1.4 -2.1,-2.7 c -0.7,-0.9 -1.4,-1.8 -2.1,-2.7 l -2,-2.8 c -2.7,-3.7 -5.1,-7.6 -7.5,-11.4 l -3.4,-5.9 c -1.1,-2 -2.1,-4.1 -3.1,-6.1 -4,-8.2 -7.5,-16.6 -10.2,-25.3 -2.7,-8.7 -4.7,-17.6 -6,-26.6 -1.3,-9 -1.8,-18.2 -1.8,-27.3 l 0.2,-6.9 0.5,-6.8 c 0.1,-2.3 0.5,-4.5 0.8,-6.8 l 0.4,-3.4 c 0.1,-1.1 0.4,-2.2 0.6,-3.4 1.4,-9 3.8,-17.8 6.7,-26.4 5.7,-17.3 14.5,-33.5 25.3,-48.1 11,-14.5 24.1,-27.5 39,-37.9 l 2.8,-2 c 0.9,-0.6 1.9,-1.2 2.9,-1.9 l 2.9,-1.8 1.4,-0.9 c 0.5,-0.3 1,-0.6 1.5,-0.9 l 5.9,-3.4 6.1,-3.1 c 8.2,-4 16.6,-7.4 25.2,-10.2 34.6,-10.8 72.9,-10.5 107.2,1 -0.9,-0.2 -1.7,-0.4 -2.6,-0.6 34.6,11.1 65.7,33.4 87.2,63 5.5,7.3 10.2,15.2 14.3,23.3 4.2,8.1 7.8,16.5 10.5,25.2 2.8,8.7 5,17.5 6.4,26.6 1.4,9 2.1,18.2 2.2,27.3 h 1.8 c 0,-11.5 -1.1,-22.9 -3.3,-34.1 -2.5,-12.7 -6.4,-24.9 -11.6,-36.6 z"
         id="path166" />
    </g>
  </g>
</g><g id="164436699152732273" featurekey="nameFeature-0" fill="#000"><text x="264.875" y="50%" dominant-baseline="middle" text-anchor="left" class="mytextnew164436699152732273" style="font-size:48px;fill:#000;">Uber Day</text><text x="174.875" y="178.1875" dominant-baseline="top" text-anchor="middle" class="mytextnew2164436699152732273" style="font-size:72px;fill:#000;">U</text></g></svg>